<?xml version="1.0" encoding="UTF-8"?>
<svg width="120px" height="120px" viewBox="0 0 120 120" version="1.1" xmlns="http://www.w3.org/2000/svg" xmlns:xlink="http://www.w3.org/1999/xlink">
    <!-- Generator: Sketch 61.2 (89653) - https://sketch.com -->
    <title>Scannable</title>
    <desc>Created with Sketch.</desc>
    <defs>
        <linearGradient x1="50%" y1="0%" x2="50%" y2="100%" id="linearGradient-1">
            <stop stop-color="#71CFBC" offset="0%"></stop>
            <stop stop-color="#61BAA8" offset="100%"></stop>
        </linearGradient>
        <path d="M56.2212766,94 L56.2212766,34.4285911 L74.1607669,26.8464971 L76,19 C62.316903,22.5317548 52.0363631,24.8824852 45.1583805,26.0521911 C38.2803978,27.221897 29.894271,29.1729889 20,31.9054668 L20,41.6190476 L38.1106383,40.175723 L38.1106383,94 L56.2212766,94 Z" id="path-2"></path>
        <filter x="-3.6%" y="-2.7%" width="107.1%" height="105.3%" filterUnits="objectBoundingBox" id="filter-3">
            <feGaussianBlur stdDeviation="1.5" in="SourceAlpha" result="shadowBlurInner1"></feGaussianBlur>
            <feOffset dx="0" dy="1" in="shadowBlurInner1" result="shadowOffsetInner1"></feOffset>
            <feComposite in="shadowOffsetInner1" in2="SourceAlpha" operator="arithmetic" k2="-1" k3="1" result="shadowInnerInner1"></feComposite>
            <feColorMatrix values="0 0 0 0 0.694117647   0 0 0 0 0.901960784   0 0 0 0 0.949019608  0 0 0 1 0" type="matrix" in="shadowInnerInner1"></feColorMatrix>
        </filter>
        <path d="M98.2895948,0.696070133 L80.6539376,0.00130050937 C79.1960433,-0.0555274859 78.3035054,1.76205536 79.1358815,3.0956829 L81.9807943,7.64926457 C72.4027013,14.0314283 41.7531338,31.9735301 0,31.9735301 L0,45 C28.2941908,45 51.6682978,37.2062993 66.2942155,30.6683166 C76.9947798,25.8846727 84.6666492,21.098279 88.6777126,18.3732794 L91.2003887,22.4126583 C92.0327646,23.7453691 93.8763537,23.4502297 94.3370451,21.9103711 L99.9081953,3.28816533 C100.281528,2.0397799 99.471404,0.742815662 98.2895948,0.696070133 Z" id="path-4"></path>
        <filter x="-2.0%" y="-4.4%" width="104.0%" height="108.9%" filterUnits="objectBoundingBox" id="filter-5">
            <feGaussianBlur stdDeviation="1.5" in="SourceAlpha" result="shadowBlurInner1"></feGaussianBlur>
            <feOffset dx="0" dy="1" in="shadowBlurInner1" result="shadowOffsetInner1"></feOffset>
            <feComposite in="shadowOffsetInner1" in2="SourceAlpha" operator="arithmetic" k2="-1" k3="1" result="shadowInnerInner1"></feComposite>
            <feColorMatrix values="0 0 0 0 0.694117647   0 0 0 0 0.901960784   0 0 0 0 0.949019608  0 0 0 1 0" type="matrix" in="shadowInnerInner1"></feColorMatrix>
        </filter>
        <linearGradient x1="50%" y1="-27.7395324%" x2="50%" y2="170.304625%" id="linearGradient-6">
            <stop stop-color="#FDFDFD" offset="0%"></stop>
            <stop stop-color="#FFFFFF" offset="80.9052505%"></stop>
            <stop stop-color="#FFFFFF" offset="100%"></stop>
        </linearGradient>
    </defs>
    <g id="TOAST" stroke="none" stroke-width="1" fill="none" fill-rule="evenodd">
        <g id="Scannable">
            <path d="M91.40625,7.39557099e-31 C108.75,7.39557099e-31 120,11.25 120,28.59375 L120,91.40625 C120,108.75 108.75,120 91.40625,120 L28.59375,120 C11.25,120 0,108.75 0,91.40625 L0,28.59375 C0,11.25 11.25,8.63145151e-24 28.59375,8.63145151e-24 L91.40625,7.39557099e-31 Z" id="App-Icon-Shape" fill="url(#linearGradient-1)"></path>
            <g id="Group-11" transform="translate(9.000000, 15.000000)">
                <g id="T" fill-rule="nonzero">
                    <use fill="#FFFFFF" xlink:href="#path-2"></use>
                    <use fill="black" fill-opacity="1" filter="url(#filter-3)" xlink:href="#path-2"></use>
                </g>
                <g id="Path" fill-rule="nonzero">
                    <use fill="#FDFDFD" xlink:href="#path-4"></use>
                    <use fill="black" fill-opacity="1" filter="url(#filter-5)" xlink:href="#path-4"></use>
                </g>
                <rect id="Rectangle" fill="url(#linearGradient-6)" x="39" y="32" width="16" height="19"></rect>
            </g>
        </g>
    </g>
</svg>